<svg xmlns="http://www.w3.org/2000/svg" width="581.416" height="465.323" viewBox="0 0 581.416 465.323"><defs><linearGradient id="a" x1=".5" y1="1" x2=".5" gradientUnits="objectBoundingBox"><stop offset="0" stop-color="#268df7"/><stop offset="1" stop-color="#268df7" stop-opacity="0"/></linearGradient><radialGradient id="b" cx=".333" cy=".566" r=".587" gradientTransform="matrix(.245 .953 .765 -.304 -.185 .408)"><stop offset="0" stop-color="#ff6c50" stop-opacity="0"/><stop offset=".517" stop-color="#ff6c50" stop-opacity=".639"/><stop offset="1" stop-color="#ff6c50" stop-opacity=".239"/></radialGradient><radialGradient id="c" cx=".333" cy=".434" r=".578"><stop offset="0" stop-color="#ff6c50" stop-opacity=".463"/><stop offset="1" stop-color="#ff6c50" stop-opacity=".173"/></radialGradient><radialGradient id="d" cx=".333" cy=".434" r=".578"><stop offset="0" stop-color="#ff6c50" stop-opacity=".306"/><stop offset="1" stop-color="#ff6c50" stop-opacity=".114"/></radialGradient></defs><path data-name="Path 1930" d="M346.533-74.72C83.02 7.9 268.99 64.137 173.286 64.137S0-34.639 0-156.488s610.047-.852 346.533 81.768z" transform="rotate(180 206.291 128.569)" fill-rule="evenodd" fill="url(#a)"/><g data-name="Group 2027" transform="translate(189.583)"><path data-name="Path 1931" d="M219.833-343a172 172 0 0 1 172 172c0 94.993-87.6 167.172-172 135.18s-27-113.2-172-135.18 77.007-172 172-172z" transform="rotate(180 195.917 0)" fill-rule="evenodd" fill="url(#b)"/><circle data-name="Ellipse 347" cx="40" cy="40" r="40" transform="translate(143)" fill="url(#c)"/><circle data-name="Ellipse 348" cx="16" cy="16" r="16" transform="translate(282 71)" fill="url(#d)"/></g><path data-name="Path 1933" d="M455.191 50l-3.624 1.667-.984 3.533 1.158 3.36 3.45 1.44 3.249-1.639 2.143-3.161-1.62-3.674z" fill="#c1c3da" fill-rule="evenodd"/><path data-name="Path 1934" d="M440.883 72l-1.812.833-.488 1.767.579 1.68 1.721.72 1.624-.82 1.076-1.58-.81-1.837z" fill="rgba(255,108,80,0.64)" fill-rule="evenodd"/><path data-name="Path 1935" d="M487.269 119l-2.9 1.334-.786 2.823.926 2.688 2.76 1.155 2.6-1.31 1.714-2.533-1.295-2.94z" fill="rgba(66,52,248,0.64)" fill-rule="evenodd"/></svg>